<?xml version="1.0" encoding="UTF-8" standalone="no"?>
<!DOCTYPE svg PUBLIC "-//W3C//DTD SVG 1.1//EN" "http://www.w3.org/Graphics/SVG/1.1/DTD/svg11.dtd">
<svg width="100%" height="100%" viewBox="0 0 1609 875" version="1.1" xmlns="http://www.w3.org/2000/svg" xmlns:xlink="http://www.w3.org/1999/xlink" xml:space="preserve" xmlns:serif="http://www.serif.com/" style="fill-rule:evenodd;clip-rule:evenodd;stroke-linecap:round;stroke-linejoin:round;stroke-miterlimit:1.5;">
    <g transform="matrix(1,0,0,1,-133.236,-370.691)">
        <g transform="matrix(1,0,0,1,387.555,-205.039)">
            <g transform="matrix(1,-0,-0,1,-254.319,575.729)">
                <path d="M1259.3,723.414L1268.46,728.514L1267.04,718.129C1266.43,721.386 1262.56,724.028 1259.3,723.414Z" style="fill:rgb(177,177,177);"/>
                <path d="M1264.23,722.32C1236.82,682.171 1085.48,460.457 1085.48,460.457L1221.81,165.923C1336.57,219.045 1410.03,333.992 1410.03,460.457C1410.03,567.714 1357.04,668.045 1268.46,728.514" style="fill:none;stroke:rgb(177,177,177);stroke-width:1.04px;"/>
            </g>
        </g>
        <g transform="matrix(1,0,0,1,508.726,139.649)">
            <path d="M766.274,505.019L766.274,556.646C766.274,570.893 754.707,582.46 740.46,582.46L255.327,582.46C241.08,582.46 229.513,570.893 229.513,556.646L229.513,505.019C229.513,490.772 241.08,479.205 255.327,479.205L740.46,479.205C754.707,479.205 766.274,490.772 766.274,505.019Z" style="fill:rgb(233,233,233);stroke:rgb(143,180,227);stroke-width:1px;"/>
        </g>
        <g transform="matrix(1,0,0,1,508.726,301.517)">
            <path d="M766.274,505.019L766.274,556.646C766.274,570.893 754.707,582.46 740.46,582.46L255.327,582.46C241.08,582.46 229.513,570.893 229.513,556.646L229.513,505.019C229.513,490.772 241.08,479.205 255.327,479.205L740.46,479.205C754.707,479.205 766.274,490.772 766.274,505.019Z" style="fill:rgb(233,233,233);stroke:rgb(143,180,227);stroke-width:1px;"/>
        </g>
        <g transform="matrix(1,0,0,1,508.726,468.184)">
            <path d="M766.274,505.019L766.274,556.646C766.274,570.893 754.707,582.46 740.46,582.46L255.327,582.46C241.08,582.46 229.513,570.893 229.513,556.646L229.513,505.019C229.513,490.772 241.08,479.205 255.327,479.205L740.46,479.205C754.707,479.205 766.274,490.772 766.274,505.019Z" style="fill:url(#_Linear1);stroke:url(#_Linear2);stroke-width:1px;"/>
        </g>
        <g transform="matrix(1,0,0,1,-185.499,-350.313)">
            <g transform="matrix(50,0,0,50,879.467,1031.85)">
            </g>
            <text x="579.418px" y="1031.85px" style="font-family:'Monaco';font-size:50px;fill:rgb(143,180,227);">First Name</text>
        </g>
        <g transform="matrix(1,0,0,1,-185.499,-188.445)">
            <g transform="matrix(50,0,0,50,879.467,1031.85)">
            </g>
            <text x="609.423px" y="1031.85px" style="font-family:'Monaco';font-size:50px;fill:rgb(143,180,227);">Last Name</text>
        </g>
        <g transform="matrix(1,0,0,1,-185.499,-21.7783)">
            <g transform="matrix(50,0,0,50,879.467,1031.85)">
            </g>
            <text x="669.433px" y="1031.85px" style="font-family:'Monaco';font-size:50px;fill:rgb(143,180,227);">Address</text>
        </g>
        <g transform="matrix(1,0,0,1,0.402142,10.4094)">
            <path d="M133.334,660.072L1740.56,660.072" style="fill:none;stroke:rgb(67,242,13);stroke-width:1px;"/>
        </g>
        <path d="M1004.54,130.803L1004.54,1268.18" style="fill:none;stroke:rgb(67,242,13);stroke-width:1px;"/>
        <g transform="matrix(1,0,0,1,-24.7314,22.6548)">
            <rect x="1006.62" y="625.172" width="45.31" height="45.31" style="fill:none;stroke:rgb(242,92,10);stroke-width:1px;"/>
        </g>
        <circle cx="764.053" cy="644.668" r="25.814" style="fill:none;stroke:rgb(240,8,142);stroke-width:1px;"/>
        <g transform="matrix(1,-0,-0,1,133.236,370.691)">
            <path d="M623.302,258.574L613.359,255.259L616.673,265.203C616.673,261.889 619.988,258.574 623.302,258.574Z" style="fill:rgb(240,8,142);"/>
            <path d="M618.662,260.563C642.353,284.254 737.346,379.247 737.346,379.247" style="fill:none;stroke:rgb(240,8,142);stroke-width:1.04px;"/>
        </g>
        <g transform="matrix(25,0,0,25,967.187,756.255)">
        </g>
        <text x="877.172px" y="756.255px" style="font-family:'Monaco';font-size:25px;fill:rgb(240,8,142);">Radius</text>
        <g transform="matrix(0.813031,0.58222,-0.58222,0.813031,857.184,-934.695)">
            <g transform="matrix(50,0,0,50,570.444,1300.64)">
            </g>
            <text x="467.694px" y="1300.64px" style="font-family:'HanziPenSC-W3', 'HanziPen SC', cursive;font-size:50px;fill:rgb(118,118,118);">15px</text>
        </g>
        <g transform="matrix(1,0,0,1,-104.28,10.2748)">
            <g transform="matrix(1,-0,-0,1,237.516,360.416)">
                <path d="M340.067,215.213L328.812,237.749L306.275,226.494" style="fill:none;stroke:rgb(147,149,152);stroke-width:3.96px;stroke-linejoin:miter;stroke-miterlimit:10;"/>
                <path d="M373.196,91.443C373.196,91.443 347.086,105.907 329.698,165.923C319.453,201.285 326.219,229.265 328.812,237.749" style="fill:none;stroke:rgb(147,149,152);stroke-width:3.96px;"/>
            </g>
        </g>
        <g transform="matrix(1,0,0,1,-137.595,-68.9799)">
            <g transform="matrix(50,0,0,50,1081.45,1243.47)">
            </g>
            <text x="457.45px" y="1243.47px" style="font-family:'HanziPenSC-W3', 'HanziPen SC', cursive;font-size:50px;fill:rgb(118,118,118);">Move the controls further over</text>
        </g>
        <g transform="matrix(1,0,0,1,-68.539,-13.1779)">
            <g transform="matrix(1,-0,-0,1,201.775,383.869)">
                <path d="M1205.37,769.11L1226.78,782.395L1213.49,803.798" style="fill:none;stroke:rgb(147,149,152);stroke-width:3.96px;stroke-linejoin:miter;stroke-miterlimit:10;"/>
                <path d="M873.384,781.757C873.384,781.757 1239.35,703.276 1035.4,781.757C832.391,859.872 1033.14,827.639 1226.78,782.395" style="fill:none;stroke:rgb(147,149,152);stroke-width:3.96px;"/>
            </g>
        </g>
    </g>
    <defs>
        <linearGradient id="_Linear1" x1="0" y1="0" x2="1" y2="0" gradientUnits="userSpaceOnUse" gradientTransform="matrix(-536.761,-6.57342e-14,1.2645e-14,-103.255,766.274,530.833)"><stop offset="0" style="stop-color:white;stop-opacity:1"/><stop offset="1" style="stop-color:rgb(233,233,233);stop-opacity:1"/></linearGradient>
        <linearGradient id="_Linear2" x1="0" y1="0" x2="1" y2="0" gradientUnits="userSpaceOnUse" gradientTransform="matrix(-536.761,6.57342e-14,-6.57342e-14,-536.761,766.274,530.833)"><stop offset="0" style="stop-color:rgb(143,180,227);stop-opacity:0"/><stop offset="1" style="stop-color:rgb(143,180,227);stop-opacity:1"/></linearGradient>
    </defs>
</svg>
