<?xml version="1.0" encoding="UTF-8" standalone="no"?>
<!DOCTYPE svg PUBLIC "-//W3C//DTD SVG 1.1//EN" "http://www.w3.org/Graphics/SVG/1.1/DTD/svg11.dtd">
<svg width="100%" height="100%" viewBox="0 0 604 579" version="1.1" xmlns="http://www.w3.org/2000/svg" xmlns:xlink="http://www.w3.org/1999/xlink" xml:space="preserve" xmlns:serif="http://www.serif.com/" style="fill-rule:evenodd;clip-rule:evenodd;stroke-linecap:round;stroke-linejoin:round;stroke-miterlimit:1.5;">
    <g transform="matrix(1,0,0,1,-251.355,-166.471)">
        <g transform="matrix(0.331979,0,0,0.331979,33.285,9.8094)">
            <path d="M1470.8,578.293C1486.92,540.416 1524.11,515.829 1565.28,515.829C1606.44,515.829 1643.63,540.416 1659.75,578.293L1850.64,1026.73L2336.12,1069.7C2377.12,1073.33 2412,1101.1 2424.72,1140.25C2437.44,1179.4 2425.55,1222.37 2394.51,1249.41L2027,1569.52L2136.16,2044.52C2145.38,2084.64 2129.75,2126.39 2096.44,2150.59C2063.14,2174.78 2018.6,2176.75 1983.29,2155.58L1565.28,1904.99L1147.26,2155.58C1111.95,2176.75 1067.42,2174.78 1034.11,2150.59C1000.81,2126.39 985.175,2084.64 994.395,2044.52L1103.55,1569.52L736.047,1249.41C705.006,1222.37 693.114,1179.4 705.835,1140.25C718.557,1101.1 753.431,1073.33 794.437,1069.7L1279.91,1026.73L1470.8,578.293Z" style="fill:url(#_Linear1);stroke:black;stroke-width:87.86px;"/>
        </g>
    </g>
    <defs>
        <linearGradient id="_Linear1" x1="0" y1="0" x2="1" y2="0" gradientUnits="userSpaceOnUse" gradientTransform="matrix(764.289,1030.37,-1030.37,764.289,1269.78,1027.51)"><stop offset="0" style="stop-color:white;stop-opacity:1"/><stop offset="0.55" style="stop-color:rgb(239,239,239);stop-opacity:1"/><stop offset="1" style="stop-color:rgb(179,179,179);stop-opacity:1"/></linearGradient>
    </defs>
</svg>
