<?xml version="1.0" encoding="UTF-8" standalone="no"?>
<!DOCTYPE svg PUBLIC "-//W3C//DTD SVG 1.1//EN" "http://www.w3.org/Graphics/SVG/1.1/DTD/svg11.dtd">
<svg width="100%" height="100%" viewBox="0 0 63 63" version="1.1" xmlns="http://www.w3.org/2000/svg" xmlns:xlink="http://www.w3.org/1999/xlink" xml:space="preserve" xmlns:serif="http://www.serif.com/" style="fill-rule:evenodd;clip-rule:evenodd;stroke-linecap:round;stroke-linejoin:round;stroke-miterlimit:1.5;">
    <g transform="matrix(1,0,0,1,-1243.96,-432.945)">
        <g id="move">
        </g>
        <g id="close">
            <g transform="matrix(0.826721,0,0,0.826721,292.98,-89.2225)">
                <path d="M1224.14,651.017L1224.14,687.305C1224.14,697.319 1216.01,705.449 1205.99,705.449L1169.7,705.449C1159.69,705.449 1151.56,697.319 1151.56,687.305L1151.56,651.017C1151.56,641.003 1159.69,632.873 1169.7,632.873L1205.99,632.873C1216.01,632.873 1224.14,641.003 1224.14,651.017Z" style="fill:rgb(136,136,136);stroke:black;stroke-width:2.52px;"/>
            </g>
            <g transform="matrix(0.193462,0,0,0.193462,1109.77,186.383)">
                <path d="M905.76,1357.39L931.605,1383.24L879.915,1434.93L931.605,1486.62L905.76,1512.46L854.07,1460.77L802.38,1512.46L776.536,1486.62L828.225,1434.93L776.536,1383.24L802.38,1357.39L854.07,1409.08L905.76,1357.39Z" style="fill:white;stroke:black;stroke-width:10.77px;"/>
            </g>
        </g>
    </g>
</svg>
